<svg xmlns="http://www.w3.org/2000/svg" viewBox="0 0 640 420" role="img" aria-labelledby="title desc">
  <title id="title">GEP flat negro</title>
  <desc id="desc">Versión plana negra del logotipo GEP para documentos y fondos claros.</desc>
  <rect width="640" height="420" fill="#ffffff"/>
  <rect x="166" y="44" width="308" height="236" rx="22" fill="none" stroke="#080808" stroke-width="6"/>
  <g fill="#080808">
    <path d="M320 80 392 111v66c0 55-31 99-72 121-41-22-72-66-72-121v-66l72-31Z"/>
    <path d="M331 114c-31 40-66 62-104 70 47 10 95-11 139-66-12 3-23 2-35-4Z" fill="#ffffff"/>
    <path d="M358 160c-29 36-65 59-109 67 43 18 89 0 137-57-10 0-20-3-28-10Z" fill="#ffffff"/>
    <path d="M348 218c-24 29-53 47-88 55 34 12 69 0 106-42-6-3-12-8-18-13Z" fill="#ffffff"/>
  </g>
  <text x="320" y="355" text-anchor="middle" fill="#080808" font-family="Georgia, 'Times New Roman', serif" font-size="106" font-weight="700" letter-spacing="12">GEP</text>
</svg>
